# xmcd
#
# Track frame offsets: 
#        150
#        31125
#        62813
#        98310
#        128739
#        164675
#        209327
#        245215
#        278409
#        317050
#
# Disc length: 4600 seconds
#
# Revision: 1
# Processed by: cddbd v1.5.2PL0 Copyright (c) Steve Scherf et al.
# Submitted via: ExactAudioCopyFreeDBPlugin 1.0
#
DISCID=8611f60a
DTITLE=Various Artist - Best Of Blue Note 50 [CD 3 of 5)
DYEAR=2011
DGENRE=Jazz
TTITLE0=Fred Jackson - Souterhn Exposure
TTITLE1=Wayne Shorter - Virgo
TTITLE2=Thelonious Monk Quartet With John Coltrane - Monk's Mood (Live
TTITLE2=At Carnegie Hall)
TTITLE3=Paul Chambers - Dexterity
TTITLE4=Sonny Rollins - Decision
TTITLE5=John Coltrane - Blue Train (Alternate Take)
TTITLE6=Joe Henderson - Blue Bossa
TTITLE7=Big John Patton - Latona
TTITLE8=Freddie Hubbard - For Spee's Sake
TTITLE9=Jackie McLean - Marney
EXTD=YEAR: 2011
EXTT0=
EXTT1=
EXTT2=
EXTT3=
EXTT4=
EXTT5=
EXTT6=
EXTT7=
EXTT8=
EXTT9=
PLAYORDER=
